<svg width="57" height="52" viewBox="0 0 57 52" fill="none" xmlns="http://www.w3.org/2000/svg">
<path d="M47.3349 0.897461H30.2091C16.5428 0.897461 5.44531 11.9949 5.44531 25.6613V32.169C5.44531 32.3403 5.58232 32.4773 5.75358 32.4773H9.21297C9.38423 32.4773 9.52124 32.3403 9.52124 32.169V25.6613C9.52124 14.2213 18.8034 4.97338 30.2091 4.97338H53.3289C53.5686 4.97338 53.7056 4.73362 53.5686 4.52811C52.2671 2.43878 50.2805 0.897461 47.3349 0.897461Z" fill="black"/>
<path d="M55.7607 10.8999C55.7265 10.7629 55.6237 10.6602 55.4524 10.6602H30.1749C21.6463 10.6602 14.7617 17.5789 14.7617 26.0733V32.1701C14.7617 32.3413 14.8987 32.4783 15.07 32.4783H17.6046C18.2554 32.4783 18.8034 31.9303 18.8034 31.2795V26.0733C18.8034 19.8053 23.9069 14.7018 30.1749 14.7018H55.8292C56.0005 14.7018 56.1375 14.5648 56.1375 14.3936C56.1032 13.4003 56.0005 12.2015 55.7607 10.8999Z" fill="black"/>
<path d="M8.83702 51.7937H25.9628C39.6291 51.7937 50.7266 40.6962 50.7266 27.0299V20.5221C50.7266 20.3509 50.5895 20.2139 50.4183 20.2139H46.9589C46.7876 20.2139 46.6506 20.3509 46.6506 20.5221V27.0299C46.6506 38.4699 37.3685 47.7178 25.9628 47.7178H2.84302C2.60326 47.7178 2.46625 47.9575 2.60325 48.1631C3.90481 50.2524 5.8914 51.7937 8.83702 51.7937Z" fill="black"/>
<path d="M0.376765 41.7923C0.411017 41.9293 0.513772 42.032 0.685029 42.032H25.9626C34.4912 42.032 41.3758 35.1133 41.3758 26.6189V20.5221C41.3758 20.3509 41.2387 20.2139 41.0675 20.2139H38.5329C37.8821 20.2139 37.3341 20.7619 37.3341 21.4127V26.5846C37.3341 32.8527 32.2306 37.9561 25.9626 37.9561H0.308264C0.137006 37.9561 0 38.0931 0 38.2644C0.0685029 39.2919 0.171257 40.4907 0.376765 41.7923Z" fill="black"/>
</svg>
